<mxfile host="app.diagrams.net" agent="Mozilla/5.0 (Macintosh; Intel Mac OS X 10_15_7) AppleWebKit/605.1.15 (KHTML, like Gecko) Version/18.3.1 Safari/605.1.15" version="26.2.12">
  <diagram name="Page-1" id="rmPZp0EjrEYrQT2ebqk1">
    <mxGraphModel dx="2086" dy="831" grid="0" gridSize="10" guides="1" tooltips="1" connect="1" arrows="1" fold="1" page="1" pageScale="1" pageWidth="850" pageHeight="1100" math="0" shadow="0">
      <root>
        <mxCell id="0" />
        <mxCell id="1" parent="0" />
        <mxCell id="HWRatGbCe2EtBCG43sGO-8" style="edgeStyle=orthogonalEdgeStyle;rounded=0;orthogonalLoop=1;jettySize=auto;html=1;entryX=0;entryY=0.5;entryDx=0;entryDy=0;exitX=0.5;exitY=0;exitDx=0;exitDy=0;" edge="1" parent="1" source="HWRatGbCe2EtBCG43sGO-1" target="HWRatGbCe2EtBCG43sGO-7">
          <mxGeometry relative="1" as="geometry">
            <mxPoint x="140" y="80" as="targetPoint" />
          </mxGeometry>
        </mxCell>
        <mxCell id="HWRatGbCe2EtBCG43sGO-9" value="publish task from user" style="edgeLabel;html=1;align=center;verticalAlign=middle;resizable=0;points=[];" vertex="1" connectable="0" parent="HWRatGbCe2EtBCG43sGO-8">
          <mxGeometry x="-0.2632" y="4" relative="1" as="geometry">
            <mxPoint as="offset" />
          </mxGeometry>
        </mxCell>
        <mxCell id="HWRatGbCe2EtBCG43sGO-1" value="Chat Agent" style="rounded=1;whiteSpace=wrap;html=1;fillColor=#f8cecc;strokeColor=#b85450;" vertex="1" parent="1">
          <mxGeometry x="80" y="210" width="120" height="60" as="geometry" />
        </mxCell>
        <mxCell id="HWRatGbCe2EtBCG43sGO-14" style="edgeStyle=orthogonalEdgeStyle;rounded=0;orthogonalLoop=1;jettySize=auto;html=1;entryX=1;entryY=0.5;entryDx=0;entryDy=0;exitX=0;exitY=1;exitDx=0;exitDy=0;" edge="1" parent="1" source="HWRatGbCe2EtBCG43sGO-2" target="HWRatGbCe2EtBCG43sGO-13">
          <mxGeometry relative="1" as="geometry" />
        </mxCell>
        <mxCell id="HWRatGbCe2EtBCG43sGO-16" value="publish question&amp;nbsp;&lt;div&gt;to chat agent&lt;/div&gt;" style="edgeLabel;html=1;align=center;verticalAlign=middle;resizable=0;points=[];" vertex="1" connectable="0" parent="HWRatGbCe2EtBCG43sGO-14">
          <mxGeometry x="-0.3333" y="4" relative="1" as="geometry">
            <mxPoint x="-14" as="offset" />
          </mxGeometry>
        </mxCell>
        <mxCell id="HWRatGbCe2EtBCG43sGO-24" style="edgeStyle=orthogonalEdgeStyle;rounded=0;orthogonalLoop=1;jettySize=auto;html=1;exitX=1;exitY=0;exitDx=0;exitDy=0;entryX=0;entryY=0.5;entryDx=0;entryDy=0;" edge="1" parent="1" source="HWRatGbCe2EtBCG43sGO-2" target="HWRatGbCe2EtBCG43sGO-23">
          <mxGeometry relative="1" as="geometry" />
        </mxCell>
        <mxCell id="HWRatGbCe2EtBCG43sGO-25" value="publish spec" style="edgeLabel;html=1;align=center;verticalAlign=middle;resizable=0;points=[];" vertex="1" connectable="0" parent="HWRatGbCe2EtBCG43sGO-24">
          <mxGeometry x="-0.2143" relative="1" as="geometry">
            <mxPoint as="offset" />
          </mxGeometry>
        </mxCell>
        <mxCell id="HWRatGbCe2EtBCG43sGO-2" value="Builder Agent" style="rounded=1;whiteSpace=wrap;html=1;fillColor=#f8cecc;strokeColor=#b85450;" vertex="1" parent="1">
          <mxGeometry x="350" y="210" width="120" height="60" as="geometry" />
        </mxCell>
        <mxCell id="HWRatGbCe2EtBCG43sGO-7" value="Chat Agent Topic" style="ellipse;whiteSpace=wrap;html=1;fillColor=#d5e8d4;strokeColor=#82b366;" vertex="1" parent="1">
          <mxGeometry x="180" y="50" width="120" height="80" as="geometry" />
        </mxCell>
        <mxCell id="HWRatGbCe2EtBCG43sGO-10" style="edgeStyle=orthogonalEdgeStyle;rounded=0;orthogonalLoop=1;jettySize=auto;html=1;exitX=1;exitY=0.5;exitDx=0;exitDy=0;entryX=0;entryY=0;entryDx=0;entryDy=0;" edge="1" parent="1" source="HWRatGbCe2EtBCG43sGO-7" target="HWRatGbCe2EtBCG43sGO-2">
          <mxGeometry relative="1" as="geometry" />
        </mxCell>
        <mxCell id="HWRatGbCe2EtBCG43sGO-11" value="subscribe to get tasks" style="edgeLabel;html=1;align=center;verticalAlign=middle;resizable=0;points=[];" vertex="1" connectable="0" parent="HWRatGbCe2EtBCG43sGO-10">
          <mxGeometry x="0.23" y="1" relative="1" as="geometry">
            <mxPoint x="-1" y="17" as="offset" />
          </mxGeometry>
        </mxCell>
        <mxCell id="HWRatGbCe2EtBCG43sGO-15" style="edgeStyle=orthogonalEdgeStyle;rounded=0;orthogonalLoop=1;jettySize=auto;html=1;entryX=0.5;entryY=1;entryDx=0;entryDy=0;exitX=0;exitY=0.5;exitDx=0;exitDy=0;" edge="1" parent="1" source="HWRatGbCe2EtBCG43sGO-13" target="HWRatGbCe2EtBCG43sGO-1">
          <mxGeometry relative="1" as="geometry" />
        </mxCell>
        <mxCell id="HWRatGbCe2EtBCG43sGO-17" value="Subscribe to get questions for the user" style="edgeLabel;html=1;align=center;verticalAlign=middle;resizable=0;points=[];" vertex="1" connectable="0" parent="HWRatGbCe2EtBCG43sGO-15">
          <mxGeometry x="0.31" y="1" relative="1" as="geometry">
            <mxPoint as="offset" />
          </mxGeometry>
        </mxCell>
        <mxCell id="HWRatGbCe2EtBCG43sGO-13" value="Ask Chat Agent Topic" style="ellipse;whiteSpace=wrap;html=1;fillColor=#d5e8d4;strokeColor=#82b366;" vertex="1" parent="1">
          <mxGeometry x="180" y="360" width="120" height="80" as="geometry" />
        </mxCell>
        <mxCell id="HWRatGbCe2EtBCG43sGO-21" style="edgeStyle=orthogonalEdgeStyle;rounded=0;orthogonalLoop=1;jettySize=auto;html=1;entryX=1;entryY=0.5;entryDx=0;entryDy=0;" edge="1" parent="1" source="HWRatGbCe2EtBCG43sGO-18" target="HWRatGbCe2EtBCG43sGO-20">
          <mxGeometry relative="1" as="geometry" />
        </mxCell>
        <mxCell id="HWRatGbCe2EtBCG43sGO-28" value="publish questions to builder agent" style="edgeLabel;html=1;align=center;verticalAlign=middle;resizable=0;points=[];" vertex="1" connectable="0" parent="HWRatGbCe2EtBCG43sGO-21">
          <mxGeometry x="0.12" y="4" relative="1" as="geometry">
            <mxPoint x="-4" y="-34" as="offset" />
          </mxGeometry>
        </mxCell>
        <mxCell id="HWRatGbCe2EtBCG43sGO-31" style="edgeStyle=orthogonalEdgeStyle;rounded=0;orthogonalLoop=1;jettySize=auto;html=1;exitX=1;exitY=0;exitDx=0;exitDy=0;" edge="1" parent="1" source="HWRatGbCe2EtBCG43sGO-18" target="HWRatGbCe2EtBCG43sGO-30">
          <mxGeometry relative="1" as="geometry" />
        </mxCell>
        <mxCell id="HWRatGbCe2EtBCG43sGO-18" value="Generator Agent" style="rounded=1;whiteSpace=wrap;html=1;fillColor=#f8cecc;strokeColor=#b85450;" vertex="1" parent="1">
          <mxGeometry x="590" y="210" width="120" height="60" as="geometry" />
        </mxCell>
        <mxCell id="HWRatGbCe2EtBCG43sGO-20" value="Ask Builder Agent Topic" style="ellipse;whiteSpace=wrap;html=1;fillColor=#d5e8d4;strokeColor=#82b366;" vertex="1" parent="1">
          <mxGeometry x="500" y="350" width="120" height="80" as="geometry" />
        </mxCell>
        <mxCell id="HWRatGbCe2EtBCG43sGO-22" style="edgeStyle=orthogonalEdgeStyle;rounded=0;orthogonalLoop=1;jettySize=auto;html=1;entryX=0.825;entryY=1.067;entryDx=0;entryDy=0;entryPerimeter=0;" edge="1" parent="1" source="HWRatGbCe2EtBCG43sGO-20" target="HWRatGbCe2EtBCG43sGO-2">
          <mxGeometry relative="1" as="geometry" />
        </mxCell>
        <mxCell id="HWRatGbCe2EtBCG43sGO-29" value="subscribe to get questions&lt;div&gt;&amp;nbsp;from Generator&lt;/div&gt;" style="edgeLabel;html=1;align=center;verticalAlign=middle;resizable=0;points=[];" vertex="1" connectable="0" parent="HWRatGbCe2EtBCG43sGO-22">
          <mxGeometry x="0.042" y="-4" relative="1" as="geometry">
            <mxPoint y="-4" as="offset" />
          </mxGeometry>
        </mxCell>
        <mxCell id="HWRatGbCe2EtBCG43sGO-26" style="edgeStyle=orthogonalEdgeStyle;rounded=0;orthogonalLoop=1;jettySize=auto;html=1;entryX=0.5;entryY=0;entryDx=0;entryDy=0;exitX=1;exitY=0.5;exitDx=0;exitDy=0;" edge="1" parent="1" source="HWRatGbCe2EtBCG43sGO-23" target="HWRatGbCe2EtBCG43sGO-18">
          <mxGeometry relative="1" as="geometry" />
        </mxCell>
        <mxCell id="HWRatGbCe2EtBCG43sGO-27" value="subscribe to get spec&amp;nbsp;&lt;div&gt;from builder&lt;/div&gt;" style="edgeLabel;html=1;align=center;verticalAlign=middle;resizable=0;points=[];" vertex="1" connectable="0" parent="HWRatGbCe2EtBCG43sGO-26">
          <mxGeometry x="0.025" y="1" relative="1" as="geometry">
            <mxPoint as="offset" />
          </mxGeometry>
        </mxCell>
        <mxCell id="HWRatGbCe2EtBCG43sGO-23" value="Builder Agent Topic" style="ellipse;whiteSpace=wrap;html=1;fillColor=#d5e8d4;strokeColor=#82b366;" vertex="1" parent="1">
          <mxGeometry x="500" y="50" width="120" height="80" as="geometry" />
        </mxCell>
        <mxCell id="HWRatGbCe2EtBCG43sGO-33" style="edgeStyle=orthogonalEdgeStyle;rounded=0;orthogonalLoop=1;jettySize=auto;html=1;entryX=0.5;entryY=0;entryDx=0;entryDy=0;exitX=1;exitY=0.5;exitDx=0;exitDy=0;" edge="1" parent="1" source="HWRatGbCe2EtBCG43sGO-30" target="HWRatGbCe2EtBCG43sGO-32">
          <mxGeometry relative="1" as="geometry" />
        </mxCell>
        <mxCell id="HWRatGbCe2EtBCG43sGO-34" value="subscribe to get&lt;div&gt;output from&lt;/div&gt;&lt;div&gt;Generator Agent&lt;/div&gt;" style="edgeLabel;html=1;align=center;verticalAlign=middle;resizable=0;points=[];" vertex="1" connectable="0" parent="HWRatGbCe2EtBCG43sGO-33">
          <mxGeometry x="-0.0632" relative="1" as="geometry">
            <mxPoint y="31" as="offset" />
          </mxGeometry>
        </mxCell>
        <mxCell id="HWRatGbCe2EtBCG43sGO-30" value="Generator Agent Topic" style="ellipse;whiteSpace=wrap;html=1;fillColor=#d5e8d4;strokeColor=#82b366;" vertex="1" parent="1">
          <mxGeometry x="740" y="50" width="120" height="80" as="geometry" />
        </mxCell>
        <mxCell id="HWRatGbCe2EtBCG43sGO-32" value="Web App" style="rounded=0;whiteSpace=wrap;html=1;fillColor=#dae8fc;strokeColor=#6c8ebf;" vertex="1" parent="1">
          <mxGeometry x="850" y="210" width="120" height="60" as="geometry" />
        </mxCell>
        <mxCell id="HWRatGbCe2EtBCG43sGO-36" style="edgeStyle=orthogonalEdgeStyle;rounded=0;orthogonalLoop=1;jettySize=auto;html=1;entryX=0;entryY=0.5;entryDx=0;entryDy=0;" edge="1" parent="1" source="HWRatGbCe2EtBCG43sGO-35" target="HWRatGbCe2EtBCG43sGO-1">
          <mxGeometry relative="1" as="geometry" />
        </mxCell>
        <mxCell id="HWRatGbCe2EtBCG43sGO-35" value="Chat app" style="rounded=0;whiteSpace=wrap;html=1;fillColor=#dae8fc;strokeColor=#6c8ebf;" vertex="1" parent="1">
          <mxGeometry x="-150" y="210" width="120" height="60" as="geometry" />
        </mxCell>
      </root>
    </mxGraphModel>
  </diagram>
</mxfile>
